/* XPM */
static char * FLOOR (Copy)_xpm[] = {
"64 64 74 1",
" 	c #06400E",
".	c #05290A",
"+	c #010101",
"@	c #020903",
"#	c #26401A",
"$	c #17581B",
"%	c #1F7925",
"&	c #388D3B",
"*	c #489849",
"=	c #479849",
"-	c #459747",
";	c #368E3A",
">	c #328C36",
",	c #2E8933",
"'	c #207C27",
")	c #1E7624",
"!	c #18681A",
"~	c #17681A",
"{	c #33C23C",
"]	c #31BE3A",
"^	c #2FBC39",
"/	c #53DC58",
"(	c #6EEE71",
"_	c #6BED6E",
":	c #4CD853",
"<	c #2BB533",
"[	c #24A026",
"}	c #25A529",
"|	c #1D7C1D",
"1	c #48D44F",
"2	c #5ADE5D",
"3	c #5EDF61",
"4	c #6AE96D",
"5	c #4ED753",
"6	c #27AA2C",
"7	c #3EC946",
"8	c #2BBA36",
"9	c #249E28",
"0	c #229B24",
"a	c #228D29",
"b	c #28AF2F",
"c	c #25912D",
"d	c #41CB48",
"e	c #44D14C",
"f	c #226225",
"g	c #134F15",
"h	c #0F4910",
"i	c #081C0A",
"j	c #0C2D0E",
"k	c #102F12",
"l	c #1B371C",
"m	c #173518",
"n	c #133314",
"o	c #09260A",
"p	c #161616",
"q	c #39C642",
"r	c #66DF69",
"s	c #68DF6A",
"t	c #5AD75D",
"u	c #4ACD4F",
"v	c #4ACE50",
"w	c #40C748",
"x	c #218E22",
"y	c #061706",
"z	c #181818",
"A	c #6DEB6F",
"B	c #5EE161",
"C	c #50D656",
"D	c #53D857",
"E	c #65E567",
"F	c #3FCD48",
"G	c #5BE15E",
"H	c #27B42F",
"I	c #1C8C1E",
"                          ............                          ",
"                          ............                          ",
"                          ............                          ",
"         ++++++++++++++++++++++++++++++++++++++++++++++++       ",
"         +++++++++++++++++++++++++++++++++++++++++++++++@   ####",
"         ++$$%%%&*==-;>>>,'%%%%%%%%%%%%%%%)!!!!~!!!!!!$@@   ####",
"         ++${]^^/(((_/::::{^]]]]]]]]]]]]]]<[[[[[[[[[[}|@@   ####",
"         ++$^^^^12344/5551]^^^^^^^^^^^^^^^<666666}[[[[|@@   ####",
"         ++$^^^^^^744/5551]^^^^^^^^^^^^^^^^^^^^^^8}[[[|@@   ####",
"         ++$^^^^^^744/5551]^^^^^^^^^^^^^^^^^^^^^^8}9[[|@@   ####",
"         ++$^^^^^^744/5551]^^^^^^^^^^^^^^^^^^^^^^8}068a@@   ####",
"         ++$^^^^^^744/5551]^^^^^^^^^^^^^^^^^^^^^^8[0b^c@@   ####",
"         ++$^^^^^^744/5551]^^^^^^^^^^^^^^^^^^^^^^8b6<^c@@   ####",
"         ++$^^^^^^744/5551]^^^^^^^^^^^^^^^^^^^^^^^^^^^c@@   ####",
"         ++$^^^^^^744/5551]^^^^^^^^^^^^^^^^^^^^^^^^^^^c@@   ####",
"         ++$^^^^^^744/5551]^^^^^^^^^^^^^^^^^^^^^^^^^^^c@@   ####",
"         ++$^^^^^^744/5551]^^^^^^^^^^^^^^^^^^^^^^^^^^^c@@   ####",
"         ++$^^^^^^]dd:5551]^^^^^^^^^^^^^^^^^^^^^^^^^^^c@@   ####",
"         ++$^^^^^^^^^e5551]^^^^^^^^^^^^^^^^^^^^^^^^^^^c@@   ####",
"         ++$^^^^^^^^]e5551]^^^^^^^^^^^^^^^^^^^^^^^^^<<a@@   ####",
"         ++$^^^^^^^^]e5551]^^^^^^^^^^^^^^^^^^^^^^^^^6[|@@#######",
"         ++$^^^^^^^^]e5551]^^^^^^^^^^^^^^^^^^^^^^^^^6[|@@#######",
"         ++$^^^^^^^^]e5551]^^^^^^^^^^^^^^^^^^^^^^^^^6[|@@#######",
"         ++$^^^^^^^^]e:::1{^^^^^^^^^^^^^^^^^^^^^^^^^6[|++#######",
"....#####++$$$$$$$$$$fffff$$$$$$$$$$$$$$$$$$$$$$$$$$gh$++###....",
"....#####++++++++++++++++++++++++++++++++++++++++++++++++###....",
"....##########@+ijkllllmnnnnnnnjjooooooooooooooooo@+########....",
"....##########p+)<qrsrrtuuuuuvw<<9000000000000000xy+########....",
"..............z+%^74AAAB5::5::e]8}[[[[[[[[[9[[[[[xy+............",
"..............z+)^74AAAB555:7{{^^<<<<<<<<<b[[[[9[xy+............",
"..............z+)^74AAAB555:q^^^^^^^^^^^^^<[[[99[xy+............",
"..............z+)^qCDEAB555:q^^^^^^^^^^^<<6[[[[[[xy+............",
"....          z+)^^^]3AB555:q^^^^^^^^^^^6[[[[[[[[xy+        ....",
"....          z+)^^^]BAB555:q]]^^^^^^^^^69[[[[[[[xy+        ....",
"....          z+)^^^]BAB5555:1d^^^^^^^^^69[[[[[[[xy+        ....",
"....          z+%^^^]BAB55555:e]^^^^^^^^69[[[[[[[xy+        ....",
"              z+)^^^]BAB555555e^^^^^^866}[[[[[[[[xy+        ####",
"              z+%^^^]BAB555555e]^^^^^8[000[[[[[[[xy+        ####",
"              z+)^^^]BAB555555e]^^^^^86}66}[[[[[[xy+        ####",
"              z+%^^^]BAB555555e]^^^^^^^^^^<[[[[[[xy+        ####",
"              z+%^^^]BAB555555e^^^^^^^^^^^<[[[[[[xy+        ####",
"              z+%^^^]BAB555555e^^^^^^^^^^^<[[[[[[xy+        ####",
"              z+%^^^]BAB555555e^^^^^^^^^^^<[[[[[[xy+        ####",
"              z+)^^^]BAB555555e^^^^^^^^^^^<[[[[[[xy+        ####",
"              z+)^^^]BAB55555:e]^^^^^^^^^^<[[[[[[xy+        ####",
"              z+)^^^]BAB5555:1F^^^^^^^^^^^<[[[[[[xy+        ####",
"              z+%^^^]BAB555:q]]^^^^^^^^^^^<[[[[[[xy+        ####",
"              z+%^^^]BAB555:q^^^^^^^^^^^^^<[[[[[[xy+        ####",
"              z+%^^^]BAB555:q^^^^^^^^^^^^^<[[[[[[xy+        ####",
"              z+%^^^]BAB555:q^^^^^^^^^^^^^<[[[[[[xy+        ####",
"              z+)^^^]BAB555:q^^^^^^^^^^^^^<[[[[[[xy+        ####",
"              z+)^^^]BAB555:q^^^^^^^^^^^^^<[[[[[[xy+        ####",
"              z+%^^^]BAB555:q^^^^^^^^^^^^^<[[[[[[xy+   #########",
"              z+)^^^]BAB555:q^^^^^^^^^^^^^<[[[[[[xy+   #########",
"              z+%^^^]BAB555:q^^^^^^^^^^^^^<[[[[[[xy+   #########",
"              z+%^^^]BAB555:q^^^^^^^^^^^^^<[[[[[[xy+   #########",
"....##########z+%^^^]BAB555:q^^^^^^^^^^^^^<[[[[[[xy+########....",
"....##########z+)^^^]BAB555:q^^^^^^^^^^^^^<[[[[[[xy+########....",
"....##########z+)^^^]BAB555:q^^^^^^^^^^^^^<[[[[[[xy+########....",
"....##########z+%^^^]BAB555:q^^^^^^^^^^^^^<[[[[[[xy+########....",
"..............z+%^^^]3AB555:q^^^^^^^^^^^^^<[[[[[[xy+............",
"..............p+)888^24G1111{8888888888888H000000Iy+............",
"................................................................",
"................................................................"};
