/* XPM */
static char * FLOOR_xpm[] = {
"64 64 3 1",
" 	c #06400E",
".	c #05290A",
"+	c #26401A",
"                          ............                          ",
"                          ............                          ",
"                          ............                          ",
"                          ............                          ",
"                          ++++....                          ++++",
"                          ++++....                          ++++",
"                          ++++....                          ++++",
"                          ++++....                          ++++",
"                          ++++....                          ++++",
"                          ++++....                          ++++",
"                          ++++....                          ++++",
"                          ++++....                          ++++",
"                          ++++....                          ++++",
"                          ++++....                          ++++",
"                          ++++....                          ++++",
"                          ++++....                          ++++",
"                          ++++....                          ++++",
"                          ++++....                          ++++",
"                          ++++....                          ++++",
"                          ++++....                          ++++",
"                     +++++++++....                     +++++++++",
"                     +++++++++....                     +++++++++",
"                     +++++++++....                     +++++++++",
"                     +++++++++....                     +++++++++",
"....++++++++++++++++++++++............++++++++++++++++++++++....",
"....++++++++++++++++++++++............++++++++++++++++++++++....",
"....++++++++++++++++++++++............++++++++++++++++++++++....",
"....++++++++++++++++++++++............++++++++++++++++++++++....",
"................................................................",
"................................................................",
"................................................................",
"................................................................",
"....                      ............                      ....",
"....                      ............                      ....",
"....                      ............                      ....",
"....                      ............                      ....",
"                          ++++....                          ++++",
"                          ++++....                          ++++",
"                          ++++....                          ++++",
"                          ++++....                          ++++",
"                          ++++....                          ++++",
"                          ++++....                          ++++",
"                          ++++....                          ++++",
"                          ++++....                          ++++",
"                          ++++....                          ++++",
"                          ++++....                          ++++",
"                          ++++....                          ++++",
"                          ++++....                          ++++",
"                          ++++....                          ++++",
"                          ++++....                          ++++",
"                          ++++....                          ++++",
"                          ++++....                          ++++",
"                     +++++++++....                     +++++++++",
"                     +++++++++....                     +++++++++",
"                     +++++++++....                     +++++++++",
"                     +++++++++....                     +++++++++",
"....++++++++++++++++++++++............++++++++++++++++++++++....",
"....++++++++++++++++++++++............++++++++++++++++++++++....",
"....++++++++++++++++++++++............++++++++++++++++++++++....",
"....++++++++++++++++++++++............++++++++++++++++++++++....",
"................................................................",
"................................................................",
"................................................................",
"................................................................"};
