/* XPM */
static char * FLOOR (Copy)_xpm[] = {
"64 64 283 2",
"  	c #06400E",
". 	c #05290A",
"+ 	c #6D130C",
"@ 	c #691C0C",
"# 	c #651208",
"$ 	c #6D190A",
"% 	c #6A180A",
"& 	c #6B1208",
"* 	c #6B1909",
"= 	c #771B0C",
"- 	c #681408",
"; 	c #610C03",
"> 	c #610800",
", 	c #621108",
"' 	c #69160A",
") 	c #6A190A",
"! 	c #26401A",
"~ 	c #6A1909",
"{ 	c #8F3C1D",
"] 	c #B46840",
"^ 	c #B56339",
"/ 	c #B47758",
"( 	c #A54619",
"_ 	c #AB501D",
": 	c #893213",
"< 	c #6C180A",
"[ 	c #6C1909",
"} 	c #B96635",
"| 	c #FFB77A",
"1 	c #E67F28",
"2 	c #F1903A",
"3 	c #71180A",
"4 	c #FFAE65",
"5 	c #FFAE66",
"6 	c #F3B876",
"7 	c #E0761F",
"8 	c #ED862D",
"9 	c #A74C1A",
"0 	c #5F0E06",
"a 	c #6B190B",
"b 	c #711A0B",
"c 	c #6C190B",
"d 	c #75220F",
"e 	c #ECAB6C",
"f 	c #6A1809",
"g 	c #F59452",
"h 	c #FCA457",
"i 	c #F99E5A",
"j 	c #FEA65E",
"k 	c #FFAD63",
"l 	c #FFAC62",
"m 	c #FFAF68",
"n 	c #FFB06A",
"o 	c #FFBA70",
"p 	c #FA7F40",
"q 	c #F3470E",
"r 	c #F94D11",
"s 	c #F74C10",
"t 	c #FD581A",
"u 	c #BF3208",
"v 	c #BF2600",
"w 	c #B62000",
"x 	c #FFB263",
"y 	c #FFAE5D",
"z 	c #FFAC60",
"A 	c #FB874A",
"B 	c #F86227",
"C 	c #F33E04",
"D 	c #F5490F",
"E 	c #FB5619",
"F 	c #C83509",
"G 	c #5A0802",
"H 	c #FFAB5C",
"I 	c #FFB86A",
"J 	c #FB8C54",
"K 	c #64170C",
"L 	c #B35F30",
"M 	c #F77A3A",
"N 	c #F35F23",
"O 	c #F1440B",
"P 	c #F95317",
"Q 	c #F37537",
"R 	c #E1400D",
"S 	c #DE3604",
"T 	c #DC5623",
"U 	c #931D04",
"V 	c #9E2206",
"W 	c #FFBF70",
"X 	c #FFB566",
"Y 	c #FFAA5C",
"Z 	c #FFB168",
"` 	c #FEA763",
" .	c #F33602",
"..	c #FD480A",
"+.	c #FE5113",
"@.	c #FC4C0F",
"#.	c #FF884A",
"$.	c #C71B00",
"%.	c #D42D01",
"&.	c #FFB25B",
"*.	c #FFA957",
"=.	c #F04D14",
"-.	c #FA4F12",
";.	c #FE8546",
">.	c #E16F3B",
",.	c #FE8244",
"'.	c #FB9E4B",
").	c #FFAE51",
"!.	c #FD4F11",
"~.	c #FF5C1C",
"{.	c #F69944",
"].	c #FFA752",
"^.	c #670C00",
"/.	c #B8632E",
"(.	c #B45C27",
"_.	c #FDA051",
":.	c #FFAB67",
"<.	c #F9652B",
"[.	c #FB662D",
"}.	c #DC7D39",
"|.	c #FFBB58",
"1.	c #FB844E",
"2.	c #FFBE7F",
"3.	c #FFC27F",
"4.	c #FFA44E",
"5.	c #FFAE70",
"6.	c #FFB576",
"7.	c #FFB679",
"8.	c #FFB274",
"9.	c #F2B472",
"0.	c #F08932",
"a.	c #711F0E",
"b.	c #D83606",
"c.	c #DE3C09",
"d.	c #E53A07",
"e.	c #FFB16D",
"f.	c #FFAD6D",
"g.	c #DB7728",
"h.	c #D67021",
"i.	c #FFAB49",
"j.	c #FFA64B",
"k.	c #FA7632",
"l.	c #ED450D",
"m.	c #D52A00",
"n.	c #DA3101",
"o.	c #DB3403",
"p.	c #E23805",
"q.	c #E23200",
"r.	c #F17131",
"s.	c #FFB473",
"t.	c #FFB777",
"u.	c #FFBC81",
"v.	c #E78939",
"w.	c #FFA349",
"x.	c #FB7F36",
"y.	c #FB823C",
"z.	c #FB7B36",
"A.	c #DA3303",
"B.	c #DC3504",
"C.	c #DF3806",
"D.	c #E23A07",
"E.	c #FB8A4A",
"F.	c #FB8443",
"G.	c #FFB26E",
"H.	c #FFB26F",
"I.	c #FFB372",
"J.	c #E48635",
"K.	c #6D1909",
"L.	c #F2581B",
"M.	c #EA6927",
"N.	c #E86525",
"O.	c #ED440C",
"P.	c #D73001",
"Q.	c #F7551A",
"R.	c #F75F25",
"S.	c #FD834E",
"T.	c #681808",
"U.	c #6C1608",
"V.	c #E73E0B",
"W.	c #EA400B",
"X.	c #EC430B",
"Y.	c #E63C08",
"Z.	c #F0440B",
"`.	c #E83E09",
" +	c #FC6632",
".+	c #FC6733",
"++	c #FC6734",
"@+	c #D02200",
"#+	c #EA4610",
"$+	c #FB854E",
"%+	c #FC6833",
"&+	c #FC6834",
"*+	c #FB8450",
"=+	c #7B2C19",
"-+	c #F74B10",
";+	c #AF5725",
">+	c #FFA146",
",+	c #FFAF71",
"'+	c #FD8550",
")+	c #FFB377",
"!+	c #E37922",
"~+	c #F94B0F",
"{+	c #FB4C10",
"]+	c #FD8652",
"^+	c #F8732D",
"/+	c #F65D22",
"(+	c #FB7F41",
"_+	c #FA7A39",
":+	c #FB7C39",
"<+	c #FB7736",
"[+	c #FB8546",
"}+	c #FB7F43",
"|+	c #FFBA7D",
"1+	c #DD2E00",
"2+	c #DC2500",
"3+	c #F16E2D",
"4+	c #DBD3D0",
"5+	c #E8E3DE",
"6+	c #EEE9E4",
"7+	c #F2ECE7",
"8+	c #F7F0EA",
"9+	c #F9F4F0",
"0+	c #F9F9F9",
"a+	c #FCA687",
"b+	c #DBD7D6",
"c+	c #E0EAED",
"d+	c #E6E7E7",
"e+	c #E8E8E9",
"f+	c #E9E9EA",
"g+	c #EBEBEC",
"h+	c #EDEDEE",
"i+	c #EEEFEF",
"j+	c #F0F1F1",
"k+	c #F2F3F3",
"l+	c #F4F5F5",
"m+	c #F6F6F7",
"n+	c #F6F8FA",
"o+	c #FAFBFC",
"p+	c #FEFFFF",
"q+	c #691607",
"r+	c #E5E5E5",
"s+	c #F1F1F1",
"t+	c #FB9F7E",
"u+	c #FA4407",
"v+	c #FFBB7A",
"w+	c #6B1709",
"x+	c #C3593A",
"y+	c #E09078",
"z+	c #DB8567",
"A+	c #DFDEDE",
"B+	c #FBFEFF",
"C+	c #FCD1C2",
"D+	c #B22F0A",
"E+	c #B63711",
"F+	c #A8817A",
"G+	c #E7FCFF",
"H+	c #E2E2E2",
"I+	c #B8C0C2",
"J+	c #B1B5B6",
"K+	c #B2C8CE",
"L+	c #8E6660",
"M+	c #6B180A",
"N+	c #A47A73",
"O+	c #E6EDEE",
"P+	c #B7B8B8",
"Q+	c #B0B0B0",
"R+	c #6B1D0D",
"S+	c #FCF7F3",
"T+	c #FED9B8",
"U+	c #906861",
"V+	c #A1756D",
"W+	c #FFBB81",
"X+	c #B2AEAD",
"Y+	c #ABA7A7",
"Z+	c #8D615A",
"`+	c #7F0000",
" @	c #722619",
".@	c #F2F9FB",
"+@	c #F9D3B2",
"@@	c #FFE2B5",
"#@	c #AF867F",
"$@	c #B58C86",
"%@	c #8C635C",
"                                                    . . . . . . . . . . . .                                                     ",
"                                                    . . . . . . . . . . . .                                                     ",
"                                              + @ @ @ @ @ @ @ @ @ @ @ @ @ @ @ @ +                                               ",
"                                          # $ $ % % % % % % % % % % % % % % % % $ $ &                                           ",
"                                          * = - ; ; ; ; ; ; ; ; ; ; ; ; > ; , , ' = )                                   ! ! ! ! ",
"                                          ~ - { ] ^ ^ ^ ^ ^ ^ ^ ^ ^ ^ ^ / ] ( _ : ' ~                                   ! ! ! ! ",
"                                    + < [   ; } | | | | | | | | | | | | | | 1 2 _ ,   [ < +                             ! ! ! ! ",
"                                  @ $ = 3 - | | | | | 4 5 | | | | | | | | 6 7 8 9 0 a b = $ @                           ! ! ! ! ",
"                                  < = c d d | | | | | | | | | | | | | | | e 7 8 _ - b b a = f                           ! ! ! ! ",
"                                + [ 3 d g h i j k l k 4 5 m m n o p q r r r s t g u v w b b [ +                         ! ! ! ! ",
"                            # $ $   - d h x y k z l k 4 5 m m n A B C q q D D E i F v v b a   $ $ &                     ! ! ! ! ",
"                            * = - ; G ' i y H z z l k 4 5 n I o J p C D D s D E i u v w - K K a = )                     ! ! ! ! ",
"                            ~ - { } L } h z H z z l k 4 m l p M p N O D D s s P Q R S T ( U V = a ~                     ! ! ! ! ",
"                      + < [   ; } W X X H Y H z z l k 4 Z ` O  .C O D D D s s s ..+.@.#.Q $.%.V K   [ < +               ! ! ! ! ",
"                    @ $ = 3 - G L &.*.Y Y Y H z z l k 4 Z ` =.O q q D D D s s r r -...;.>.w v U K a b = $ @             ! ! ! ! ",
"                    < = c d d ' } &.*.Y Y Y H z z l k 4 Z ` =.O q q D D D s s r r -...,.>.v %.V a b b a = f             ! ! ! ! ",
"                  + [ 3 d 2 '.'.h *.*.Y Y Y H z z l k 4 Z ` =.O q q D D D s s r r -.-.P P s E g u v w b b [ +           ! ! ! ! ",
"              # $ $   - d '.).H *.*.*.Y Y Y H z z l k 4 Z ` =.O q q D D D s s r r -.-.-.!.+.~.i F v v b a   $ $ &       ! ! ! ! ",
"              * = - 0 G ' {.*.].*.*.*.Y Y Y H z z l k 4 Z ` O  .C O D D D s s r r -.-.-.....+.g v w w ^., , ' = )       ! ! ! ! ",
"              ~ - { /.(./._.*.].*.*.*.Y Y Y H z z l k 4 n :.p M <.N O D D s s r r -.-.P p [.#.` >.>.}.] ( _ : ' ~       ! ! ! ! ",
"        + < [   ; /.|.&.&.].].].*.*.*.Y Y Y H z z l k 4 5 n I o J <.C D D s s r r -.r E 1.J 2.| 3.2.| 3.1 2 _ , ! [ < + ! ! ! ! ",
"      @ $ = 3 ' G (.).4.].*.*.*.H H H y y z y k z l k 4 5 m m n o B C q q D D s s r ..P 5.| 6.6.7.8.| 9.7 8 ( 0 ' b = $ @ ! ! ! ",
"      f = c d d ' /.).4.4.'.'._._._._.h h h h j k l k 4 5 m m n o p q -.P P P P P E P ~.5.| 6.6.7.8.| | | 0.| a a.a.c = f ! ! ! ",
"      f 3 d 2 {.{.'.4.].'.R b.c.c.c.R R R R d.Q X l k 4 5 5 m m e.:.:.:.:.:.:.f.f.f.f.f.6.6.6.6.7.7.| 7.| | | }.g.h.a.3 f ! ! ! ",
". . . f 3 d {.i.j.4.4.].k.l.m.n.n.n.o.S S p.q.r.X l k 4 5 5 m m n e.s.s.s.s.s.6.6.t.t.6.6.6.6.6.7.7.6.7.| u.| v.1 g.a.3 f . . . ",
". . . f 3 d {.j.w.].x.y.z.l.%.A.o.B.S C.p.D.q.B E.F.X m 5 5 m m n n e.e.G.H.H.I.I.s.s.s.6.6.6.6.7.7.7.7.7.u.| J.1 g.a.3 f . . . ",
". . . K.3 d {.j.].0.L.M.N.O.P.A.o.B.S C.p.D.p.Q.B R.M l m 5 m m n n e.e.G.H.H.I.I.s.s.s.S.S.S.6.7.7.7.7.7.u.| J.1 g.a.3 K.. . . ",
". T.K.* U.d {.j.).N.V.W.W.X.P.A.o.B.S C.p.D.Y.p.Z.Z.`.j Z 5 m m n n e.e.G.H.H.I.I. + + +.+.+.+.+++7.7.7.7.u.| J.1 g.a.U.* K.T.. ",
"< b b U., a.{.j.).M.@+%.%.P.P.A.o.B.S C.p.D.d.Y.`.Y.#+j Z 5 m m n n e.e.G.H.H.I.s.$+%+%+%+&+&+++++++*+7.7.u.| J.1 g.b , U.b b < ",
"% b a.d a.=+{.j.).M.@+%.%.P.P.A.o.B.S C.p.D.d.Y.`.Y.#+j Z 5 m m n n e.e.G.H.H.s.D -+-+-+D D D D D D D 7.7.| | v.1 }.=+b a.b b % ",
"c 0 ;+'.{.{.>+w.).M.@+%.%.P.P.A.o.B.S C.p.D.d.Y.`.Y.#+j Z 5 m m n n e.e.G.H.H.D D r D E t t +.D D D D r | | | 6.,+| e h.1 ( , c ",
"a 0 (.).w.w.w.w.).M.@+%.%.P.P.A.o.B.S C.p.D.d.Y.`.Y.#+j Z 5 m m n n e.e.G.H.r r r D D @.@.!...D D D D r '+| 7.| )+| 6 !+0.9 , a ",
"a 0 (.i.>+>+w.w.).M.@+%.%.P.P.A.o.B.S C.p.D.d.Y.`.Y.#+j Z 5 m m n n e.e.G.H.r D D D -.-.!.+...D D D ~+{+'+'+| | )+| 9.7 8 9 , a ",
"a 0 (.i.>+>+w.w.).M.@+%.%.P.P.A.o.B.S C.p.D.d.Y.`.Y.#+j Z 5 m m n n e.e.G.H.r D D D -.-.!.D D D D D D r '+'+| | )+| 9.7 8 9 , a ",
"a 0 (.i.>+>+w.w.).M.@+%.%.P.P.A.o.B.S C.p.D.d.Y.`.Y.#+j Z 5 m m n n e.e.G.H.r D D D -.D D D +.D ....+.r ]+'+| | | | | 7 8 9 , a ",
"a 0 (.i.>+>+w.w.).N.@+m.m.P.P.A.o.B.S C.p.D.d.Y.Y.d.#+j Z 5 m m n n e.e.G.H.r D D D D D !.+.D D +.+.~.r ]+'+| | | | | 7 8 9 , a ",
"a 0 (.i.>+>+w.w.).M.%.l.b.P.P.A.o.B.S C.p.D.d.`.#+#+=.j Z 5 m m n n e.e.G.H.r D D D D D D D D +.+.+.~.r ]+'+| | | | | 7 8 9 , a ",
"a 0 (.i.>+>+w.w.4.'.'.k.^+b.%.A.o.B.S C.p.D.q./+(+_+j k 5 5 m m n n e.e.G.H.H.s.D D D D D !.+.+.+.+.~.r ]+| | | | | | 7 8 9 , a ",
"a 0 (.i.>+>+w.w.w.4.].:+<+l.%.A.o.B.S C.p.D.q.Q [+}+m 4 5 5 m m n n e.e.G.H.H.I.D r r r r r +.+.+.+.~.,+|+| | | | | | 7 8 9 , a ",
"a 0 (.i.>+>+w.w.w.4.4.].'.P.@+m.m.m.1+1+1+q.2+3+X l k 4 5 5 m m n n e.e.G.H.H.I.I.r r r r r ........+.5.|+| | | | | | 7 8 9 , a ",
"a 0 (.i.>+>+w.w.w.4.4.]._.3+M.3+3+3+3+r.r.r.3+g Z l k 4 5 5 m m n n e.e.G.H.H.I.I.s.6.r r r r r ;.,.| | |+| | | | | | 7 8 9 , a ",
"a 0 (.i.>+>+w.w.w.4.4.4.].y &.&.&.&.x x x x X x z l k 4 5 5 m m n n e.e.G.H.H.I.I.s.s.6.2.2.2.2.2.2.2.| | | | | | | | 7 8 9 , a ",
"a 0 (.).w.w.w.w.w.4.].].*.*.*.*.H H H y *.*.Y H H Y z l l l k 5 5 5 m n n n n e.I.t.t.t.t.| | | |+|+| | | | 7.| )+| | !+0.9 , a ",
"c 0 ;+'.{.{.>+w.4.'.'.'.'.'.'._._._._.h k 5 m n n n e.G.H.H.I.I.s.s.6.7.t.t.| | 8.f.f.f.5.5.5.,+,+,+,+7.| | | 6.,+| | h.1 ( , c ",
"% b a.d a.=+{.j.).M.%.b.b.b.C.c.c.c.D.#+4+5+5+5+5+5+5+6+6+6+7+7+7+8+8+8+9+9+9+0+a+..E E t t t t t t ~.,+| | | v.1 }.=+a.d a.b % ",
"< b b U., a.{.j.).N.@+m.m.%.P.n.n.n.1+R b+c+d+d+e+f+g+h+i+j+k+k+l+m+n+n+o+o+o+p+a+C @.@.@.!.!.!.!.@.t ,+| | | J.1 g.b , U.b b < ",
"  q+K.* U.d w.).|.3+2+1+1+q.q.p.1+2+2+S 4+d+r+r+d+e+f+g+h+i+j+s+k+l+l+m+0+0+0+p+t+ .u+u+......!.t E ~.v+3.| | 2 8 1 d U.* K.q+! ",
"      w+b a.;+L /.( V V V V V V x+y+z+y+A+r+r+r+d+e+f+g+h+i+j+s+k+l+l+m+0+0+0+B+C+t+a+a+z+z+z+x+D+E+E+^ ] ] / _ 9 ( b b w+! ! ! ",
"      T.b b , 0 ; , K K K K K G F+G+c+c+H+H+r+r+d+e+f+g+h+i+j+s+k+l+l+m+0+0+0+o+p+p+p+B+I+J+K+L+G , , ; ; ; > , , , b b q+! ! ! ",
"        f $ M+M+M+M+M+M+M+% a > N+O+A+A+H+H+r+r+d+e+f+g+h+i+j+s+k+l+l+m+0+o+o+B+B+B+p+0+P+Q+I+L+^.c % M+M+M+M+M+M+M+$ f ! ! ! ! ",
"            b b b b b b b R+M+> N+O+A+A+H+H+r+r+d+e+f+g+h+i+j+s+k+l+l+m+0+9+9+S+o+B+p+0+P+Q+I+L+^.% R+b b b b b b b     ! ! ! ! ",
"                          + % > N+O+A+A+H+H+r+r+d+e+f+g+h+i+j+s+k+l+l+n+9+u.7.H.T+p+p+0+P+Q+I+L+^.M++                   ! ! ! ! ",
"                          @ % > N+O+A+A+H+H+r+r+d+e+f+g+h+i+j+s+k+l+l+n+9+6.m l T+p+p+0+P+Q+I+L+^.M+b         ! ! ! ! ! ! ! ! ! ",
"                          @ % > N+O+A+A+H+H+r+r+d+e+f+g+h+i+j+s+k+l+l+n+9+| e.5 T+p+p+0+P+Q+I+L+^.M+b         ! ! ! ! ! ! ! ! ! ",
"                          @ % > N+O+A+A+H+H+r+r+d+e+f+g+h+i+j+s+k+l+l+n+9+| e.5 T+p+p+0+P+Q+I+L+^.M+b         ! ! ! ! ! ! ! ! ! ",
"                          @ % > N+O+A+A+H+H+r+r+d+e+f+g+h+i+j+s+k+l+l+n+9+| e.5 T+p+p+0+P+Q+I+L+^.M+b         ! ! ! ! ! ! ! ! ! ",
". . . . ! ! ! ! ! ! ! ! ! @ % > N+j+H+r+H+H+r+r+d+e+f+g+h+i+j+s+k+l+n+o+9+6.m l T+p+p+o+P+J+I+U+^.M+b ! ! ! ! ! ! ! ! ! . . . . ",
". . . . ! ! ! ! ! ! ! ! ! @ % ^.V+A+4+4+A+H+r+r+d+e+f+g+h+i+j+s+k+s+8+9+8+W+6.H.T+0+0+l+X+Y+J+Z+^.% b ! ! ! ! ! ! ! ! ! . . . . ",
". . . . ! ! ! ! ! ! ! ! ! `+% b a. @a.=+4+e+r+r+d+e+f+g+h+i+j+s+.@+@n 6.W+8+S+S+b+Q+P+X+=+a. @a.b % `+! ! ! ! ! ! ! ! ! . . . . ",
". . . . ! ! ! ! ! ! ! ! ! ! f b 3 U.^.a.4+e+r+r+d+e+f+g+h+i+j+s+.@+@Y 5 6.S+B+p+b+Y+J+Y+a., U.3 b f ! ! ! ! ! ! ! ! ! ! . . . . ",
". . . . . . . . . . . . . . . q+K.* U. @H+.@l+l+.@.@.@o+B+B+B+p+p+@@I W 3.p+p+p+d+P+I+J+ @U.* K.q+. . . . . . . . . . . . . . . ",
". . . . . . . . . . . . . . . . . w+3 a.V+F+F+F+F+F+F+F+#@#@#@#@#@/ ^ ^ ] #@$@$@N+%@U+Z+a.3 w+. . . . . . . . . . . . . . . . . ",
". . . . . . . . . . . . . . . . . T.b 3 > > > > > > > > > > > > > > 0 ; ; > > > > ^.^.^.3 b q+. . . . . . . . . . . . . . . . . ",
". . . . . . . . . . . . . . . . . . < $ c a a a a a a a a a a a a a a a a a a a a a a c $ < . . . . . . . . . . . . . . . . . . "};
