/* XPM */
static char * PLAYER_xpm[] = {
"64 64 54 1",
" 	c #06400E",
".	c #F83800",
"+	c #26401A",
"@	c #F93700",
"#	c #EF4000",
"$	c #F24202",
"%	c #F94508",
"&	c #F64306",
"*	c #F94106",
"=	c #020204",
"-	c #CC8012",
";	c #FD963D",
">	c #FF9740",
",	c #EA8D2D",
"'	c #112ED6",
")	c #EFF1FC",
"!	c #FE923C",
"~	c #C68914",
"{	c #FDA346",
"]	c #FFA448",
"^	c #E99933",
"/	c #CD8C1A",
"(	c #0F0904",
"_	c #BF8512",
":	c #F69F3F",
"<	c #F79F40",
"[	c #E1962D",
"}	c #A3710E",
"|	c #F9A041",
"1	c #FFA348",
"2	c #4B3205",
"3	c #E79832",
"4	c #F29D3C",
"5	c #EF9C39",
"6	c #19130D",
"7	c #E89934",
"8	c #4D3405",
"9	c #DE942A",
"0	c #593B11",
"a	c #D89124",
"b	c #ED9B37",
"c	c #100904",
"d	c #1A130D",
"e	c #05290A",
"f	c #F89C3F",
"g	c #FC993F",
"h	c #F73900",
"i	c #1B02B6",
"j	c #1B01B6",
"k	c #E45300",
"l	c #1902B6",
"m	c #1A02B6",
"n	c #D6750D",
"o	c #FFA447",
"                    ....................                        ",
"                    ....................                        ",
"                    ....................                        ",
"                    ....................                        ",
"                ....................................        ++++",
"                ....................................        ++++",
"                @@@@@@@@@@@@@@@@@@@@@@@@@@@@........        ++++",
"                ###########$%%%%%%%&$##$%%%*........        ++++",
"                ===========-;;;;;;>,''');;;!                ++++",
"                ===========~{]]]]]]^'''){]]]                ++++",
"                ===========~{{{{{{]^'''){{{{                ++++",
"                ===========/{{{{{{]^'''){{{{                ++++",
"            (((_::<[===}:::|{{{{{{]^'''){{{{{{{{{{{{        ++++",
"            (((~{1]^===~{11{{{{{{{]^'''){{{{{{{{{{{{        ++++",
"            (((~{{]^===~{]]1{{{{{{]^'''){]]1{{{{{{{{        ++++",
"            (((~{{]^===23^^4{{{{{{15))))^^^5{{{{{{{{        ++++",
"            (((~{{]^=======6{{{{{{{{{{{^===~{{{{{{{{{{{{    ++++",
"            (((~{{]^=======6{{{{{{{{{{]^===~{{{{{{{{{{{{    ++++",
"            (((~{]]7=======6{{{{{{{{]]]7===~{]]]]]]1{{{{    ++++",
"            (((83^^966666660{{{{{{{|^^7a===23^^^^^^b{{{{    ++++",
"            ((((cc(6{{{{{{{{{{{{{{]^================   +++++++++",
"            (((((((6{{{{{{{{{{{{{{]^================   +++++++++",
"            (((((((6{{{{{{{{{{{{{{]^================   +++++++++",
"            (((((((d{{{{{{{{{{{{{{]7================   +++++++++",
"eeee++++++++++++++++{{{{{{{{{{{1{{{{:::::::::::4++++++++++++eeee",
"eeee++++++++++++++++{{{{{{{{{{{{{{{{111111111111++++++++++++eeee",
"eeee++++++++++++++++1111]]]]11111111111{{{{{{{{{++++++++++++eeee",
"eeee++++++++++++++++:::f;;;g:::::::::::|{{{{{{{{++++++++++++eeee",
"eeeeeeeeeeeeeeeehhhhhhhhiiihhhhhhhhhjjjhhhhhheeeeeeeeeeeeeeeeeee",
"eeeeeeeeeeeeeeeehhhhhhhhjjjhhhhhhhhhjjjhhhhhheeeeeeeeeeeeeeeeeee",
"eeeeeeeeeeeeeeeehhhhhhhhjjjhhhhhhhhhjjjhhhhhhhhhhhhhheeeeeeeeeee",
"eeeeeeeeeeeeeeeehhhhhhhhjjjhhhhhhhhhjjjhhhhhhhhhhhhhheeeeeeeeeee",
"eeee        hhhhhhhhhhhhjjjhhhhhhhhhjjjhhhhhhhhhhhhhh       eeee",
"eeee        hhhhhhhhhhhhjjjhhhhhhhhhjjjhhhhhhhhhhhhhh       eeee",
"eeee        hhhhhhhhhhhhjjjhhhhhhhhkjjjhhhhhhhhhhhhhh       eeee",
"eeee        hhhhhhhhhhhhjjjljjjjjjjjjjjhhhhhhhhhhhhhh       eeee",
"        hhhhhhhhhhhhhhhhjjjjjjjjjjjjjjjhhhhhhhhhhhhhhhhh    ++++",
"        hhhhhhhhhhhhhhhhjjjjjjjjjjjjjjjhhhhhhhhhhhhhhhhh    ++++",
"        hhhhhhhhhhhhhjjjjjjjjjjjjjjjjjjjjjjhhhhhhhhhhhhh    ++++",
"        hhhhhhhhhhhhjjjjjiiijjjjjjjjiiijjjjjhhhhhhhhhhhh    ++++",
"        ::::::<[hhhhmmm)))))jjjjjjj)))))mjmjhhhn::::::::    ++++",
"        111111]^hhhhjjj)()()jjjjjjj)()()jjjjhhh~{1111111    ++++",
"        {{{{{{]^hhhhjjj)))))jjjjjjj)))))jjjjhhh~{{{{{{{{    ++++",
"        {{{{{{]7hhhhjjj)))))jjjjjjj)))))jjjjhhh/{{{{{{{{    ++++",
"        {{{{{{{{:   jjjjiiiijjjjjjjjiiiijjjj   |{{{{{{{{    ++++",
"        {{{{{{{{1   jjjjjjjjjjjjjjjjjjjjjjjj   {{{{{{{{{    ++++",
"        {{{{{{{o]   jjjjjjjjjjjjjjjjjjjjjjjj   ]{{{{{{{{    ++++",
"        {{{{{{o     jjjjjjjjjjjjjjjjjjjjjjjj     {{{{{{{    ++++",
"        {{{{{{] jjjjjjjjjjjjjjjjjjjjjjjjjjjjjjjj {{{{{{{    ++++",
"        {{{{{{] jjjjjjjjjjjjjjjjjjjjjjjjjjjjjjjj {{{{{{{    ++++",
"         {{{{{  jjjjjjjjjjjjjjjjjjjjjjjjjjjjjjjj  {{{{{     ++++",
"          {{{   jjjjjjjjjjjjjjjjjjjjjjjjjjjjjjjj   {{{      ++++",
"                jjjjjjjjjjjj++eeee  jjjjjjjjjjjj        ++++++++",
"                jjjjjjjjjjjj++eeee  jjjjjjjjjjjj       +++++++++",
"                jjjjjjjjjjjj++eeee  jjjjjjjjjjjj       +++++++++",
"                mmmmmmmmjjjj++eeee  jjjjmmmmmmmm       +++++++++",
"eeee++++++++hhhhhhhhhhhh++eeeeeeeeeeee++hhhhhhhhhhhh++++++++eeee",
"eeee++++++++hhhhhhhhhhhh++eeeeeeeeeeee++hhhhhhhhhhhh++++++++eeee",
"eeee++++++++hhhhhhhhhhhh++eeeeeeeeeeee++hhhhhhhhhhhh++++++++eeee",
"eeee++++++++hhhhhhhhhhhh++eeeeeeeeeeee++hhhhhhhhhhhh++++++++eeee",
"eeeeeeeehhhhhhhhhhhhhhhheeeeeeeeeeeeeeeehhhhhhhhhhhhhhhheeeeeeee",
"eeeeeeeehhhhhhhhhhhhhhhheeeeeeeeeeeeeeeehhhhhhhhhhhhhhhheeeeeeee",
"eeeeeeeehhhhhhhhhhhhhhhheeeeeeeeeeeeeeeehhhhhhhhhhhhhhhheeeeeeee",
"eeeeeeeehhhhhhhhhhhhhhhheeeeeeeeeeeeeeeehhhhhhhhhhhhhhhheeeeeeee"};
