/* XPM */
static char * WALL_xpm[] = {
"64 64 4 1",
" 	c #4A2929",
".	c #2E2020",
"+	c #654747",
"@	c #533434",
"                            ....                                ",
"                            ....                                ",
"                            ....                                ",
"                            ....                                ",
"++++++++++++++++++++++++++++....++++++++++++++++++++++++++++++++",
"++++++++++++++++++++++++++++....++++++++++++++++++++++++++++++++",
"++++++++++++++++++++++++++++....++++++++++++++++++++++++++++++++",
"++++++++++++++++++++++++++++....++++++++++++++++++++++++++++++++",
"++++@@@@@@@@@@@@@@@@@@@@++++....++++@@@@@@@@@@@@@@@@@@@@@@@@++++",
"++++@@@@@@@@@@@@@@@@@@@@++++....++++@@@@@@@@@@@@@@@@@@@@@@@@++++",
"++++@@@@@@@@@@@@@@@@@@@@++++....++++@@@@@@@@@@@@@@@@@@@@@@@@++++",
"++++@@@@@@@@@@@@@@@@@@@@++++....++++@@@@@@@@@@@@@@@@@@@@@@@@++++",
"                ....                            ....            ",
"                ....                            ....            ",
"                ....                            ....            ",
"                ....                            ....            ",
"++++++++++++++++....++++++++++++++++++++++++++++....++++++++++++",
"++++++++++++++++....++++++++++++++++++++++++++++....++++++++++++",
"++++++++++++++++....++++++++++++++++++++++++++++....++++++++++++",
"++++++++++++++++....++++++++++++++++++++++++++++....++++++++++++",
"++++@@@@@@@@++++....++++@@@@@@@@@@@@@@@@@@@@++++....++++@@@@@@@@",
"++++@@@@@@@@++++....++++@@@@@@@@@@@@@@@@@@@@++++....++++@@@@@@@@",
"++++@@@@@@@@++++....++++@@@@@@@@@@@@@@@@@@@@++++....++++@@@@@@@@",
"++++@@@@@@@@++++....++++@@@@@@@@@@@@@@@@@@@@++++....++++@@@@@@@@",
"@@@@@@@@@@@@@@@@....@@@@@@@@@@@@@@@@@@@@@@@@@@@@....@@@@@@@@@@@@",
"@@@@@@@@@@@@@@@@....@@@@@@@@@@@@@@@@@@@@@@@@@@@@....@@@@@@@@@@@@",
"@@@@@@@@@@@@@@@@....@@@@@@@@@@@@@@@@@@@@@@@@@@@@....@@@@@@@@@@@@",
"@@@@@@@@@@@@@@@@....@@@@@@@@@@@@@@@@@@@@@@@@@@@@....@@@@@@@@@@@@",
"                            ....                                ",
"                            ....                                ",
"                            ....                                ",
"                            ....                                ",
"++++++++++++++++++++++++++++....++++++++++++++++++++++++++++++++",
"++++++++++++++++++++++++++++....++++++++++++++++++++++++++++++++",
"++++++++++++++++++++++++++++....++++++++++++++++++++++++++++++++",
"++++++++++++++++++++++++++++....++++++++++++++++++++++++++++++++",
"++++@@@@@@@@@@@@@@@@@@@@++++....++++@@@@@@@@@@@@@@@@@@@@@@@@++++",
"++++@@@@@@@@@@@@@@@@@@@@++++....++++@@@@@@@@@@@@@@@@@@@@@@@@++++",
"++++@@@@@@@@@@@@@@@@@@@@++++....++++@@@@@@@@@@@@@@@@@@@@@@@@++++",
"++++@@@@@@@@@@@@@@@@@@@@++++....++++@@@@@@@@@@@@@@@@@@@@@@@@++++",
"@@@@@@@@@@@@@@@@@@@@@@@@@@@@....@@@@@@@@@@@@@@@@@@@@@@@@@@@@@@@@",
"@@@@@@@@@@@@@@@@@@@@@@@@@@@@....@@@@@@@@@@@@@@@@@@@@@@@@@@@@@@@@",
"@@@@@@@@@@@@@@@@@@@@@@@@@@@@....@@@@@@@@@@@@@@@@@@@@@@@@@@@@@@@@",
"@@@@@@@@@@@@@@@@@@@@@@@@@@@@....@@@@@@@@@@@@@@@@@@@@@@@@@@@@@@@@",
"                ....                            ....            ",
"                ....                            ....            ",
"                ....                            ....            ",
"                ....                            ....            ",
"++++++++++++++++....++++++++++++++++++++++++++++....++++++++++++",
"++++++++++++++++....++++++++++++++++++++++++++++....++++++++++++",
"++++++++++++++++....++++++++++++++++++++++++++++....++++++++++++",
"++++++++++++++++....++++++++++++++++++++++++++++....++++++++++++",
"++++@@@@@@@@++++....++++@@@@@@@@@@@@@@@@@@@@++++....++++@@@@@@@@",
"++++@@@@@@@@++++....++++@@@@@@@@@@@@@@@@@@@@++++....++++@@@@@@@@",
"++++@@@@@@@@++++....++++@@@@@@@@@@@@@@@@@@@@++++....++++@@@@@@@@",
"++++@@@@@@@@++++....++++@@@@@@@@@@@@@@@@@@@@++++....++++@@@@@@@@",
"@@@@@@@@@@@@@@@@....@@@@@@@@@@@@@@@@@@@@@@@@@@@@....@@@@@@@@@@@@",
"@@@@@@@@@@@@@@@@....@@@@@@@@@@@@@@@@@@@@@@@@@@@@....@@@@@@@@@@@@",
"@@@@@@@@@@@@@@@@....@@@@@@@@@@@@@@@@@@@@@@@@@@@@....@@@@@@@@@@@@",
"@@@@@@@@@@@@@@@@....@@@@@@@@@@@@@@@@@@@@@@@@@@@@....@@@@@@@@@@@@",
"................................................................",
"................................................................",
"................................................................",
"................................................................"};
